<mxfile host="Electron" agent="Mozilla/5.0 (Windows NT 10.0; Win64; x64) AppleWebKit/537.36 (KHTML, like Gecko) draw.io/24.7.17 Chrome/128.0.6613.36 Electron/32.0.1 Safari/537.36" version="24.7.17">
  <diagram id="C5RBs43oDa-KdzZeNtuy" name="Page-1">
    <mxGraphModel dx="1120" dy="524" grid="1" gridSize="10" guides="1" tooltips="1" connect="1" arrows="1" fold="1" page="1" pageScale="1" pageWidth="827" pageHeight="1169" math="0" shadow="0">
      <root>
        <mxCell id="WIyWlLk6GJQsqaUBKTNV-0" />
        <mxCell id="WIyWlLk6GJQsqaUBKTNV-1" parent="WIyWlLk6GJQsqaUBKTNV-0" />
        <mxCell id="W9sJVD_r1qbAF0M44WsY-0" value="" style="strokeWidth=2;html=1;shape=mxgraph.flowchart.start_2;whiteSpace=wrap;" vertex="1" parent="WIyWlLk6GJQsqaUBKTNV-1">
          <mxGeometry x="240" y="40" width="40" height="40" as="geometry" />
        </mxCell>
        <mxCell id="W9sJVD_r1qbAF0M44WsY-3" value="" style="edgeStyle=orthogonalEdgeStyle;rounded=0;orthogonalLoop=1;jettySize=auto;html=1;" edge="1" parent="WIyWlLk6GJQsqaUBKTNV-1" source="W9sJVD_r1qbAF0M44WsY-1" target="W9sJVD_r1qbAF0M44WsY-2">
          <mxGeometry relative="1" as="geometry" />
        </mxCell>
        <mxCell id="W9sJVD_r1qbAF0M44WsY-1" value="Đặc trưng Admin" style="rounded=1;whiteSpace=wrap;html=1;" vertex="1" parent="WIyWlLk6GJQsqaUBKTNV-1">
          <mxGeometry x="205" y="100" width="110" height="40" as="geometry" />
        </mxCell>
        <mxCell id="W9sJVD_r1qbAF0M44WsY-5" value="" style="edgeStyle=orthogonalEdgeStyle;rounded=0;orthogonalLoop=1;jettySize=auto;html=1;" edge="1" parent="WIyWlLk6GJQsqaUBKTNV-1" source="W9sJVD_r1qbAF0M44WsY-2" target="W9sJVD_r1qbAF0M44WsY-4">
          <mxGeometry relative="1" as="geometry" />
        </mxCell>
        <mxCell id="W9sJVD_r1qbAF0M44WsY-2" value="Thêm / Cập nhật" style="rounded=1;whiteSpace=wrap;html=1;" vertex="1" parent="WIyWlLk6GJQsqaUBKTNV-1">
          <mxGeometry x="205" y="180" width="110" height="40" as="geometry" />
        </mxCell>
        <mxCell id="W9sJVD_r1qbAF0M44WsY-7" value="" style="edgeStyle=orthogonalEdgeStyle;rounded=0;orthogonalLoop=1;jettySize=auto;html=1;" edge="1" parent="WIyWlLk6GJQsqaUBKTNV-1" source="W9sJVD_r1qbAF0M44WsY-4" target="W9sJVD_r1qbAF0M44WsY-6">
          <mxGeometry relative="1" as="geometry" />
        </mxCell>
        <mxCell id="W9sJVD_r1qbAF0M44WsY-4" value="Nhập dữ liệu" style="rounded=1;whiteSpace=wrap;html=1;" vertex="1" parent="WIyWlLk6GJQsqaUBKTNV-1">
          <mxGeometry x="205" y="260" width="110" height="40" as="geometry" />
        </mxCell>
        <mxCell id="W9sJVD_r1qbAF0M44WsY-12" style="edgeStyle=orthogonalEdgeStyle;rounded=0;orthogonalLoop=1;jettySize=auto;html=1;" edge="1" parent="WIyWlLk6GJQsqaUBKTNV-1" source="W9sJVD_r1qbAF0M44WsY-6">
          <mxGeometry relative="1" as="geometry">
            <mxPoint x="405" y="420" as="targetPoint" />
          </mxGeometry>
        </mxCell>
        <mxCell id="W9sJVD_r1qbAF0M44WsY-13" value="Đúng" style="edgeLabel;html=1;align=center;verticalAlign=middle;resizable=0;points=[];" vertex="1" connectable="0" parent="W9sJVD_r1qbAF0M44WsY-12">
          <mxGeometry x="-0.4625" y="1" relative="1" as="geometry">
            <mxPoint x="-3" y="-14" as="offset" />
          </mxGeometry>
        </mxCell>
        <mxCell id="W9sJVD_r1qbAF0M44WsY-19" value="" style="edgeStyle=orthogonalEdgeStyle;rounded=0;orthogonalLoop=1;jettySize=auto;html=1;" edge="1" parent="WIyWlLk6GJQsqaUBKTNV-1" source="W9sJVD_r1qbAF0M44WsY-6" target="W9sJVD_r1qbAF0M44WsY-8">
          <mxGeometry relative="1" as="geometry" />
        </mxCell>
        <mxCell id="W9sJVD_r1qbAF0M44WsY-20" value="Sai" style="edgeLabel;html=1;align=center;verticalAlign=middle;resizable=0;points=[];" vertex="1" connectable="0" parent="W9sJVD_r1qbAF0M44WsY-19">
          <mxGeometry x="-0.1" y="-2" relative="1" as="geometry">
            <mxPoint x="-14" y="-13" as="offset" />
          </mxGeometry>
        </mxCell>
        <mxCell id="W9sJVD_r1qbAF0M44WsY-6" value="Kiểm tra" style="rhombus;whiteSpace=wrap;html=1;" vertex="1" parent="WIyWlLk6GJQsqaUBKTNV-1">
          <mxGeometry x="220" y="330" width="80" height="70" as="geometry" />
        </mxCell>
        <mxCell id="W9sJVD_r1qbAF0M44WsY-21" style="edgeStyle=orthogonalEdgeStyle;rounded=0;orthogonalLoop=1;jettySize=auto;html=1;entryX=0;entryY=0.5;entryDx=0;entryDy=0;" edge="1" parent="WIyWlLk6GJQsqaUBKTNV-1" source="W9sJVD_r1qbAF0M44WsY-8" target="W9sJVD_r1qbAF0M44WsY-4">
          <mxGeometry relative="1" as="geometry">
            <Array as="points">
              <mxPoint x="85" y="280" />
            </Array>
          </mxGeometry>
        </mxCell>
        <mxCell id="W9sJVD_r1qbAF0M44WsY-8" value="Báo lỗi" style="rounded=1;whiteSpace=wrap;html=1;" vertex="1" parent="WIyWlLk6GJQsqaUBKTNV-1">
          <mxGeometry x="30" y="345" width="110" height="40" as="geometry" />
        </mxCell>
        <mxCell id="W9sJVD_r1qbAF0M44WsY-14" value="" style="strokeWidth=2;html=1;shape=mxgraph.flowchart.start_2;whiteSpace=wrap;" vertex="1" parent="WIyWlLk6GJQsqaUBKTNV-1">
          <mxGeometry x="360" y="660" width="40" height="40" as="geometry" />
        </mxCell>
        <mxCell id="W9sJVD_r1qbAF0M44WsY-24" value="" style="edgeStyle=orthogonalEdgeStyle;rounded=0;orthogonalLoop=1;jettySize=auto;html=1;" edge="1" parent="WIyWlLk6GJQsqaUBKTNV-1" source="W9sJVD_r1qbAF0M44WsY-15" target="W9sJVD_r1qbAF0M44WsY-23">
          <mxGeometry relative="1" as="geometry" />
        </mxCell>
        <mxCell id="W9sJVD_r1qbAF0M44WsY-15" value="Lưu&amp;nbsp;" style="rounded=1;whiteSpace=wrap;html=1;" vertex="1" parent="WIyWlLk6GJQsqaUBKTNV-1">
          <mxGeometry x="350" y="420" width="110" height="40" as="geometry" />
        </mxCell>
        <mxCell id="W9sJVD_r1qbAF0M44WsY-26" style="edgeStyle=orthogonalEdgeStyle;rounded=0;orthogonalLoop=1;jettySize=auto;html=1;entryX=0.5;entryY=0;entryDx=0;entryDy=0;" edge="1" parent="WIyWlLk6GJQsqaUBKTNV-1" source="W9sJVD_r1qbAF0M44WsY-23" target="W9sJVD_r1qbAF0M44WsY-25">
          <mxGeometry relative="1" as="geometry" />
        </mxCell>
        <mxCell id="W9sJVD_r1qbAF0M44WsY-27" value="Thất bại" style="edgeLabel;html=1;align=center;verticalAlign=middle;resizable=0;points=[];" vertex="1" connectable="0" parent="W9sJVD_r1qbAF0M44WsY-26">
          <mxGeometry x="-0.3913" relative="1" as="geometry">
            <mxPoint y="-15" as="offset" />
          </mxGeometry>
        </mxCell>
        <mxCell id="W9sJVD_r1qbAF0M44WsY-30" style="edgeStyle=orthogonalEdgeStyle;rounded=0;orthogonalLoop=1;jettySize=auto;html=1;entryX=0.5;entryY=0;entryDx=0;entryDy=0;" edge="1" parent="WIyWlLk6GJQsqaUBKTNV-1" source="W9sJVD_r1qbAF0M44WsY-23" target="W9sJVD_r1qbAF0M44WsY-29">
          <mxGeometry relative="1" as="geometry" />
        </mxCell>
        <mxCell id="W9sJVD_r1qbAF0M44WsY-31" value="Thành công" style="edgeLabel;html=1;align=center;verticalAlign=middle;resizable=0;points=[];" vertex="1" connectable="0" parent="W9sJVD_r1qbAF0M44WsY-30">
          <mxGeometry x="-0.36" y="2" relative="1" as="geometry">
            <mxPoint x="-15" y="-13" as="offset" />
          </mxGeometry>
        </mxCell>
        <mxCell id="W9sJVD_r1qbAF0M44WsY-23" value="Kiểm tra" style="rhombus;whiteSpace=wrap;html=1;" vertex="1" parent="WIyWlLk6GJQsqaUBKTNV-1">
          <mxGeometry x="365" y="500" width="80" height="70" as="geometry" />
        </mxCell>
        <mxCell id="W9sJVD_r1qbAF0M44WsY-25" value="Thông báo lỗi" style="rounded=1;whiteSpace=wrap;html=1;" vertex="1" parent="WIyWlLk6GJQsqaUBKTNV-1">
          <mxGeometry x="240" y="580" width="110" height="40" as="geometry" />
        </mxCell>
        <mxCell id="W9sJVD_r1qbAF0M44WsY-33" value="" style="edgeStyle=orthogonalEdgeStyle;rounded=0;orthogonalLoop=1;jettySize=auto;html=1;" edge="1" parent="WIyWlLk6GJQsqaUBKTNV-1" source="W9sJVD_r1qbAF0M44WsY-29" target="W9sJVD_r1qbAF0M44WsY-32">
          <mxGeometry relative="1" as="geometry" />
        </mxCell>
        <mxCell id="W9sJVD_r1qbAF0M44WsY-29" value="Thông báo thành công" style="rounded=1;whiteSpace=wrap;html=1;" vertex="1" parent="WIyWlLk6GJQsqaUBKTNV-1">
          <mxGeometry x="470" y="580" width="110" height="40" as="geometry" />
        </mxCell>
        <mxCell id="W9sJVD_r1qbAF0M44WsY-32" value="Lấy dữ liệu mới" style="rounded=1;whiteSpace=wrap;html=1;" vertex="1" parent="WIyWlLk6GJQsqaUBKTNV-1">
          <mxGeometry x="470" y="660" width="110" height="40" as="geometry" />
        </mxCell>
        <mxCell id="W9sJVD_r1qbAF0M44WsY-34" style="edgeStyle=orthogonalEdgeStyle;rounded=0;orthogonalLoop=1;jettySize=auto;html=1;entryX=1;entryY=0.5;entryDx=0;entryDy=0;entryPerimeter=0;" edge="1" parent="WIyWlLk6GJQsqaUBKTNV-1" source="W9sJVD_r1qbAF0M44WsY-32" target="W9sJVD_r1qbAF0M44WsY-14">
          <mxGeometry relative="1" as="geometry" />
        </mxCell>
        <mxCell id="W9sJVD_r1qbAF0M44WsY-35" style="edgeStyle=orthogonalEdgeStyle;rounded=0;orthogonalLoop=1;jettySize=auto;html=1;entryX=0;entryY=0.5;entryDx=0;entryDy=0;entryPerimeter=0;exitX=0.5;exitY=1;exitDx=0;exitDy=0;" edge="1" parent="WIyWlLk6GJQsqaUBKTNV-1" source="W9sJVD_r1qbAF0M44WsY-25" target="W9sJVD_r1qbAF0M44WsY-14">
          <mxGeometry relative="1" as="geometry" />
        </mxCell>
      </root>
    </mxGraphModel>
  </diagram>
</mxfile>
